<mxfile host="app.diagrams.net" modified="2023-05-24T11:43:13.097Z" agent="Mozilla/5.0 (Windows NT 10.0; Win64; x64) AppleWebKit/537.36 (KHTML, like Gecko) Chrome/113.0.0.0 Safari/537.36 Edg/113.0.1774.50" version="21.3.3" etag="7gMHrDtBZ86P89WPoZf4" type="github">
  <diagram name="PÃ¡gina-1" id="g7ybsHsWfEq2sEgtIH0x">
    <mxGraphModel>
      <root>
        <mxCell id="0" />
        <mxCell id="1" parent="0" />
      </root>
    </mxGraphModel>
  </diagram>
</mxfile>
